<svg width="37" height="36" viewBox="0 0 37 36" fill="none" xmlns="http://www.w3.org/2000/svg">
<path d="M34.5955 15.64H8.09571L19.673 4.06261C20.5983 3.13737 20.5983 1.61903 19.673 0.693796C19.4536 0.473865 19.1929 0.29938 18.9059 0.180329C18.6189 0.0612786 18.3112 0 18.0005 0C17.6898 0 17.3821 0.0612786 17.0951 0.180329C16.8081 0.29938 16.5474 0.473865 16.328 0.693796L0.693797 16.328C0.473866 16.5474 0.299381 16.8081 0.180331 17.0951C0.0612797 17.3821 0 17.6898 0 18.0005C0 18.3112 0.0612797 18.6189 0.180331 18.9059C0.299381 19.1929 0.473866 19.4536 0.693797 19.673L16.328 35.3072C16.5476 35.5269 16.8084 35.7011 17.0953 35.82C17.3823 35.9388 17.6899 36 18.0005 36C18.3111 36 18.6187 35.9388 18.9057 35.82C19.1927 35.7011 19.4534 35.5269 19.673 35.3072C19.8927 35.0876 20.0669 34.8268 20.1858 34.5398C20.3047 34.2529 20.3658 33.9453 20.3658 33.6347C20.3658 33.324 20.3047 33.0165 20.1858 32.7295C20.0669 32.4425 19.8927 32.1818 19.673 31.9621L8.09571 20.3848H34.5955C35.9003 20.3848 36.9679 19.3172 36.9679 18.0124C36.9679 16.7075 35.9003 15.64 34.5955 15.64Z" fill="#FCFBFE"/>
</svg>
