<svg width="21" height="36" viewBox="0 0 21 36" fill="none" xmlns="http://www.w3.org/2000/svg">
<path d="M19.8995 0.704537C19.6767 0.481208 19.4121 0.304022 19.1207 0.183126C18.8294 0.0622299 18.517 0 18.2016 0C17.8862 0 17.5738 0.0622299 17.2825 0.183126C16.9911 0.304022 16.7265 0.481208 16.5037 0.704537L0.561052 16.6472C0.383201 16.8247 0.242101 17.0355 0.145828 17.2676C0.049555 17.4997 0 17.7485 0 17.9997C0 18.251 0.049555 18.4998 0.145828 18.7319C0.242101 18.964 0.383201 19.1748 0.561052 19.3523L16.5037 35.295C17.4438 36.235 18.9594 36.235 19.8995 35.295C20.8395 34.3549 20.8395 32.8393 19.8995 31.8992L6.00957 17.9902L19.9186 4.08108C20.8395 3.16021 20.8395 1.62541 19.8995 0.704537Z" fill="#FCFBFE"/>
</svg>
