<svg width="48" height="36" viewBox="0 0 48 36" fill="none" xmlns="http://www.w3.org/2000/svg">
<path d="M14.8071 29.0932L4.87277 19.1588C4.33747 18.6235 3.61144 18.3228 2.8544 18.3228C2.09737 18.3228 1.37134 18.6235 0.836035 19.1588C0.300731 19.6941 0 20.4201 0 21.1772C0 21.552 0.0738319 21.9232 0.217279 22.2695C0.360726 22.6158 0.570979 22.9305 0.836035 23.1955L12.8031 35.1626C13.9196 36.2791 15.7233 36.2791 16.8398 35.1626L47.1297 4.87277C47.665 4.33747 47.9657 3.61144 47.9657 2.8544C47.9657 2.09737 47.665 1.37134 47.1297 0.836036C46.5943 0.300731 45.8683 0 45.1113 0C44.3542 0 43.6282 0.300731 43.0929 0.836036L14.8071 29.0932Z" fill="#FCFBFE"/>
</svg>
