<svg width="36" height="36" viewBox="0 0 36 36" fill="none" xmlns="http://www.w3.org/2000/svg">
<path d="M13.2393 7.43833C12.9262 7.126 12.5394 6.89757 12.1147 6.77413C11.69 6.65069 11.241 6.63621 10.8092 6.73204C10.3774 6.82786 9.97675 7.03089 9.64412 7.32241C9.31149 7.61392 9.05765 7.98452 8.90601 8.4L0.157678 32.4633C0.0139633 32.8601 -0.032458 33.2857 0.0223098 33.7041C0.0770777 34.1226 0.231436 34.5218 0.472429 34.8683C0.713421 35.2148 1.03401 35.4984 1.40729 35.6953C1.78058 35.8922 2.19565 35.9967 2.61768 36C2.9284 35.9979 3.23637 35.9415 3.52768 35.8333L27.5893 27.0833C28.005 26.9319 28.3757 26.6782 28.6674 26.3456C28.9591 26.0131 29.1623 25.6124 29.2583 25.1806C29.3543 24.7488 29.34 24.2998 29.2167 23.875C29.0933 23.4502 28.865 23.0633 28.5527 22.75L13.2393 7.43833ZM5.51434 25.5217L8.71434 16.7233L19.2677 27.2767L10.4677 30.4767L5.51434 25.5217ZM21.3243 10.6667C21.3494 9.76528 21.5676 8.87978 21.9643 8.07C22.8477 6.305 24.5143 5.33333 26.6577 5.33333C27.7743 5.33333 28.491 4.95167 28.9327 4.13167C29.1652 3.67291 29.2987 3.17036 29.3243 2.65667C29.3257 2.30304 29.4674 1.96443 29.7184 1.71532C29.9694 1.46621 30.3091 1.32701 30.6627 1.32833C31.0163 1.32966 31.3549 1.47141 31.604 1.72239C31.8531 1.97338 31.9923 2.31304 31.991 2.66667C31.991 4.81 30.571 8 26.6577 8C25.541 8 24.8243 8.38167 24.3827 9.20167C24.1501 9.66042 24.0167 10.163 23.991 10.6767C23.9904 10.8518 23.9552 11.025 23.8876 11.1865C23.82 11.348 23.7212 11.4947 23.597 11.618C23.4727 11.7414 23.3253 11.839 23.1633 11.9054C23.0013 11.9718 22.8278 12.0057 22.6527 12.005C22.4776 12.0043 22.3043 11.9692 22.1428 11.9016C21.9813 11.834 21.8347 11.7352 21.7113 11.6109C21.588 11.4867 21.4903 11.3393 21.4239 11.1773C21.3575 11.0153 21.3237 10.8418 21.3243 10.6667ZM17.3243 5.33333V1.33333C17.3243 0.979711 17.4648 0.640573 17.7149 0.390524C17.9649 0.140476 18.3041 0 18.6577 0C19.0113 0 19.3504 0.140476 19.6005 0.390524C19.8505 0.640573 19.991 0.979711 19.991 1.33333V5.33333C19.991 5.68696 19.8505 6.02609 19.6005 6.27614C19.3504 6.52619 19.0113 6.66667 18.6577 6.66667C18.3041 6.66667 17.9649 6.52619 17.7149 6.27614C17.4648 6.02609 17.3243 5.68696 17.3243 5.33333ZM34.2677 19.0567C34.3914 19.1805 34.4896 19.3276 34.5565 19.4894C34.6235 19.6512 34.6579 19.8246 34.6578 19.9998C34.6578 20.1749 34.6232 20.3483 34.5561 20.51C34.489 20.6718 34.3907 20.8187 34.2668 20.9425C34.143 21.0663 33.9959 21.1644 33.8341 21.2314C33.6723 21.2983 33.4989 21.3327 33.3238 21.3327C33.1486 21.3326 32.9753 21.298 32.8135 21.2309C32.6517 21.1638 32.5048 21.0655 32.381 20.9417L29.7143 18.275C29.4642 18.0248 29.3236 17.6855 29.3236 17.3317C29.3236 16.9778 29.4642 16.6385 29.7143 16.3883C29.9645 16.1381 30.3039 15.9976 30.6577 15.9976C31.0115 15.9976 31.3508 16.1381 31.601 16.3883L34.2677 19.0567ZM35.0793 11.9317L31.0793 13.265C30.7438 13.3768 30.3777 13.3508 30.0614 13.1927C29.745 13.0345 29.5045 12.7572 29.3927 12.4217C29.2808 12.0862 29.3069 11.72 29.465 11.4037C29.6232 11.0874 29.9005 10.8468 30.236 10.735L34.236 9.40167C34.5715 9.28983 34.9377 9.31586 35.254 9.47401C35.5703 9.63217 35.8108 9.9095 35.9227 10.245C36.0345 10.5805 36.0085 10.9467 35.8503 11.263C35.6922 11.5793 35.4148 11.8198 35.0793 11.9317Z" fill="#FCFBFE"/>
</svg>
