<svg width="60" height="36" viewBox="0 0 60 36" fill="none" xmlns="http://www.w3.org/2000/svg">
<path d="M40.7383 0H32.6881C31.9384 0 31.2168 0.281148 30.6639 0.787215L21.4516 9.22165C21.4422 9.23103 21.4329 9.24977 21.4235 9.25914C19.8678 10.7211 19.8959 13.0546 21.2267 14.5072C22.4169 15.8099 24.9191 16.1566 26.4841 14.7603C26.4935 14.7509 26.5123 14.7509 26.5216 14.7415L34.0095 7.88152C34.6187 7.32859 35.5746 7.36608 36.1275 7.97523C36.6898 8.58439 36.643 9.53092 36.0338 10.0932L33.5878 12.333L47.2329 23.4103C47.5046 23.6352 47.7483 23.8788 47.9732 24.1319V5.99782L42.8563 0.880931C42.3034 0.318635 41.5349 0 40.7383 0ZM50.9815 6.01657V26.9996C50.9815 28.6584 52.3216 29.9985 53.9804 29.9985H59.9782V6.01657H50.9815ZM55.4799 26.9996C54.6552 26.9996 53.9804 26.3248 53.9804 25.5001C53.9804 24.6754 54.6552 24.0007 55.4799 24.0007C56.3046 24.0007 56.9793 24.6754 56.9793 25.5001C56.9793 26.3248 56.3046 26.9996 55.4799 26.9996ZM0 29.9891H5.99782C7.6566 29.9891 8.99674 28.649 8.99674 26.9902V6.01657H0V29.9891ZM4.49837 24.0007C5.32307 24.0007 5.99782 24.6754 5.99782 25.5001C5.99782 26.3248 5.32307 26.9996 4.49837 26.9996C3.67367 26.9996 2.99891 26.3248 2.99891 25.5001C2.99891 24.6661 3.67367 24.0007 4.49837 24.0007ZM45.3492 25.7438L31.3574 14.3854L28.5459 16.9626C25.7625 19.5023 21.4985 19.2586 19.015 16.5502C16.494 13.795 16.6908 9.53092 19.4273 7.01933L27.0933 0H19.2399C18.4433 0 17.6842 0.318635 17.1219 0.880931L11.9956 5.99782V26.9808H13.7107L22.192 34.6562C24.7598 36.746 28.5365 36.3524 30.6264 33.7846L30.6451 33.7659L32.3227 35.2185C33.8127 36.4368 36.0151 36.2025 37.224 34.7124L40.1667 31.095L40.6727 31.5073C41.9567 32.5476 43.8497 32.3601 44.89 31.0669L45.7803 29.9704C46.8299 28.6771 46.6331 26.7934 45.3492 25.7438Z" fill="#FCFBFE"/>
</svg>
