<svg width="36" height="36" viewBox="0 0 36 36" fill="none" xmlns="http://www.w3.org/2000/svg">
<path d="M18 0C27.9405 0 36 8.0595 36 18C36 27.9405 27.9405 36 18 36C8.0595 36 0 27.9405 0 18C0 8.0595 8.0595 0 18 0ZM18 29.739C19.5574 29.7639 21.1041 29.4787 22.5502 28.8999C23.9963 28.3211 25.3127 27.4604 26.4228 26.3679C27.533 25.2753 28.4146 23.9728 29.0164 22.5362C29.6182 21.0996 29.9282 19.5576 29.9282 18C29.9282 16.4424 29.6182 14.9004 29.0164 13.4638C28.4146 12.0272 27.533 10.7247 26.4228 9.63212C25.3127 8.53959 23.9963 7.67887 22.5502 7.10011C21.1041 6.52134 19.5574 6.2361 18 6.261C14.9191 6.31025 11.9811 7.5687 9.81979 9.76483C7.65849 11.961 6.44717 14.9187 6.44717 18C6.44717 21.0813 7.65849 24.039 9.81979 26.2352C11.9811 28.4313 14.9191 29.6897 18 29.739ZM18 23.7615C16.4724 23.7615 15.0073 23.1546 13.9271 22.0744C12.8469 20.9942 12.24 19.5291 12.24 18.0015C12.24 16.4739 12.8469 15.0088 13.9271 13.9286C15.0073 12.8484 16.4724 12.2415 18 12.2415C19.5276 12.2415 20.9927 12.8484 22.0729 13.9286C23.1531 15.0088 23.76 16.4739 23.76 18.0015C23.76 19.5291 23.1531 20.9942 22.0729 22.0744C20.9927 23.1546 19.5276 23.7615 18 23.7615Z" fill="#FCFBFE"/>
</svg>
