<svg width="36" height="36" viewBox="0 0 36 36" fill="none" xmlns="http://www.w3.org/2000/svg">
<path d="M18 36C8.0586 36 0 27.9414 0 18C0 8.0586 8.0586 0 18 0C27.9414 0 36 8.0586 36 18C36 27.9414 27.9414 36 18 36ZM11.7 21.6V25.2H16.2V28.8H19.8V25.2H21.6C22.7935 25.2 23.9381 24.7259 24.782 23.882C25.6259 23.0381 26.1 21.8935 26.1 20.7C26.1 19.5065 25.6259 18.3619 24.782 17.518C23.9381 16.6741 22.7935 16.2 21.6 16.2H14.4C14.1613 16.2 13.9324 16.1052 13.7636 15.9364C13.5948 15.7676 13.5 15.5387 13.5 15.3C13.5 15.0613 13.5948 14.8324 13.7636 14.6636C13.9324 14.4948 14.1613 14.4 14.4 14.4H24.3V10.8H19.8V7.2H16.2V10.8H14.4C13.2065 10.8 12.0619 11.2741 11.218 12.118C10.3741 12.9619 9.9 14.1065 9.9 15.3C9.9 16.4935 10.3741 17.6381 11.218 18.482C12.0619 19.3259 13.2065 19.8 14.4 19.8H21.6C21.8387 19.8 22.0676 19.8948 22.2364 20.0636C22.4052 20.2324 22.5 20.4613 22.5 20.7C22.5 20.9387 22.4052 21.1676 22.2364 21.3364C22.0676 21.5052 21.8387 21.6 21.6 21.6H11.7Z" fill="#FCFBFE"/>
</svg>
