<svg width="41" height="36" viewBox="0 0 41 36" fill="none" xmlns="http://www.w3.org/2000/svg">
<path d="M35.3399 8.3414L8.3414 35.3399C7.91874 35.7626 7.34548 36 6.74775 36C6.15001 36 5.57675 35.7626 5.15408 35.3399C4.73142 34.9172 4.49397 34.344 4.49397 33.7462C4.49397 33.1485 4.73142 32.5752 5.15408 32.1526L32.1526 5.15408C32.5752 4.73142 33.1485 4.49397 33.7462 4.49397C34.344 4.49397 34.9172 4.73142 35.3399 5.15408C35.7626 5.57675 36 6.15001 36 6.74775C36 7.34548 35.7626 7.91874 35.3399 8.3414ZM7.49958 17.249C7.49958 17.8457 7.73662 18.418 8.15855 18.8399C8.58048 19.2619 9.15275 19.4989 9.74945 19.4989C10.3462 19.4989 10.9184 19.2619 11.3404 18.8399C11.7623 18.418 11.9993 17.8457 11.9993 17.249V11.9993H17.249C17.8457 11.9993 18.418 11.7623 18.8399 11.3404C19.2619 10.9184 19.4989 10.3462 19.4989 9.74945C19.4989 9.15275 19.2619 8.58048 18.8399 8.15855C18.418 7.73662 17.8457 7.49958 17.249 7.49958H11.9993V2.24987C11.9993 1.65317 11.7623 1.08091 11.3404 0.658973C10.9184 0.23704 10.3462 0 9.74945 0C9.15275 0 8.58048 0.23704 8.15855 0.658973C7.73662 1.08091 7.49958 1.65317 7.49958 2.24987V7.49958H2.24987C1.65317 7.49958 1.08091 7.73662 0.658973 8.15855C0.23704 8.58048 0 9.15275 0 9.74945C0 10.3462 0.23704 10.9184 0.658973 11.3404C1.08091 11.7623 1.65317 11.9993 2.24987 11.9993H7.49958V17.249ZM38.2478 28.4984H23.2487C22.652 28.4984 22.0797 28.7354 21.6578 29.1574C21.2359 29.5793 20.9988 30.1516 20.9988 30.7483C20.9988 31.345 21.2359 31.9172 21.6578 32.3392C22.0797 32.7611 22.652 32.9981 23.2487 32.9981H38.2478C38.8445 32.9981 39.4168 32.7611 39.8387 32.3392C40.2607 31.9172 40.4977 31.345 40.4977 30.7483C40.4977 30.1516 40.2607 29.5793 39.8387 29.1574C39.4168 28.7354 38.8445 28.4984 38.2478 28.4984Z" fill="#FCFBFE"/>
</svg>
