<svg width="24" height="36" viewBox="0 0 24 36" fill="none" xmlns="http://www.w3.org/2000/svg">
<path d="M5.14286 10.2857C5.14286 7.44911 7.44911 5.14286 10.2857 5.14286H12.8571C15.6937 5.14286 18 7.44911 18 10.2857V10.575C18 12.3268 17.108 13.958 15.6375 14.8982L12.2464 17.0759C11.2508 17.7161 10.4318 18.596 9.86457 19.6349C9.29736 20.6739 9.00008 21.8386 9 23.0223V23.1429C9 24.5652 10.1491 25.7143 11.5714 25.7143C12.9937 25.7143 14.1429 24.5652 14.1429 23.1429V23.0304C14.1429 22.3714 14.4804 21.7607 15.0268 21.4071L18.4179 19.2295C21.3589 17.333 23.1429 14.0786 23.1429 10.575V10.2857C23.1429 4.60446 18.5384 0 12.8571 0H10.2857C4.60446 0 0 4.60446 0 10.2857C0 11.708 1.14911 12.8571 2.57143 12.8571C3.99375 12.8571 5.14286 11.708 5.14286 10.2857ZM11.5714 36C12.4239 36 13.2415 35.6614 13.8443 35.0586C14.4471 34.4558 14.7857 33.6382 14.7857 32.7857C14.7857 31.9332 14.4471 31.1157 13.8443 30.5129C13.2415 29.9101 12.4239 29.5714 11.5714 29.5714C10.7189 29.5714 9.90138 29.9101 9.29859 30.5129C8.69579 31.1157 8.35714 31.9332 8.35714 32.7857C8.35714 33.6382 8.69579 34.4558 9.29859 35.0586C9.90138 35.6614 10.7189 36 11.5714 36Z" fill="#FCFBFE"/>
</svg>
