<svg width="36" height="36" viewBox="0 0 36 36" fill="none" xmlns="http://www.w3.org/2000/svg">
<path d="M31.0019 18C31.0019 17.586 30.9839 17.19 30.9479 16.776L34.2959 14.238C35.0159 13.698 35.2139 12.69 34.7639 11.898L31.3979 6.084C31.1821 5.70273 30.833 5.41466 30.4177 5.27512C30.0024 5.13557 29.5502 5.15441 29.1479 5.328L25.2779 6.966C24.6119 6.498 23.9099 6.084 23.1719 5.742L22.6499 1.584C22.5419 0.684 21.7679 0 20.8679 0H14.1539C13.2359 0 12.4619 0.684 12.3539 1.584L11.8319 5.742C11.0939 6.084 10.3919 6.498 9.72594 6.966L5.85594 5.328C5.02794 4.968 4.05594 5.292 3.60594 6.084L0.239936 11.916C-0.210064 12.708 -0.0120637 13.698 0.707936 14.256L4.05594 16.794C3.98132 17.6023 3.98132 18.4157 4.05594 19.224L0.707936 21.762C-0.0120637 22.302 -0.210064 23.31 0.239936 24.102L3.60594 29.916C4.05594 30.708 5.02794 31.032 5.85594 30.672L9.72594 29.034C10.3919 29.502 11.0939 29.916 11.8319 30.258L12.3539 34.416C12.4619 35.316 13.2359 36 14.1359 36H20.8499C21.7499 36 22.5239 35.316 22.6319 34.416L23.1539 30.258C23.8919 29.916 24.5939 29.502 25.2599 29.034L29.1299 30.672C29.9579 31.032 30.9299 30.708 31.3799 29.916L34.7459 24.102C35.1959 23.31 34.9979 22.32 34.2779 21.762L30.9299 19.224C30.9839 18.81 31.0019 18.414 31.0019 18ZM17.5739 24.3C14.0999 24.3 11.2739 21.474 11.2739 18C11.2739 14.526 14.0999 11.7 17.5739 11.7C21.0479 11.7 23.8739 14.526 23.8739 18C23.8739 21.474 21.0479 24.3 17.5739 24.3Z" fill="#FCFBFE"/>
</svg>
