<svg width="32" height="36" viewBox="0 0 32 36" fill="none" xmlns="http://www.w3.org/2000/svg">
<path d="M26.55 4.5705C23.5958 1.62225 19.7085 0 15.6 0H15.5723C11.4397 0.00735121 7.47893 1.65416 4.55936 4.57893C1.6398 7.50371 3.84099e-05 11.4674 4.49483e-05 15.6V23.1503C-0.00461269 24.351 0.352806 25.5252 1.02565 26.5197C1.6985 27.5141 2.65551 28.2827 3.77179 28.725L5.55005 29.4315C5.73573 29.5052 5.89997 29.6242 6.02773 29.7778C6.15548 29.9313 6.24267 30.1145 6.28129 30.3105L7.03129 34.0703C7.14118 34.6137 7.43532 35.1025 7.864 35.4541C8.29268 35.8057 8.82961 35.9986 9.38404 36H10.2C10.3592 36 10.5118 35.9368 10.6243 35.8243C10.7368 35.7117 10.8 35.5591 10.8 35.4V32.4338C10.8 31.788 11.2965 31.2338 11.9423 31.2015C12.1045 31.1937 12.2667 31.2189 12.4189 31.2756C12.5711 31.3323 12.7103 31.4193 12.8279 31.5314C12.9455 31.6434 13.0391 31.7782 13.1031 31.9275C13.167 32.0768 13.2 32.2376 13.2 32.4V35.4C13.2 35.5591 13.2633 35.7117 13.3758 35.8243C13.4883 35.9368 13.6409 36 13.8 36C13.9592 36 14.1118 35.9368 14.2243 35.8243C14.3368 35.7117 14.4 35.5591 14.4 35.4V32.4338C14.4 31.788 14.8965 31.2338 15.5423 31.2015C15.7045 31.1937 15.8667 31.2189 16.0189 31.2756C16.1711 31.3323 16.3103 31.4193 16.4279 31.5314C16.5455 31.6434 16.6391 31.7782 16.7031 31.9275C16.767 32.0768 16.8 32.2376 16.8 32.4V35.4C16.8 35.5591 16.8633 35.7117 16.9758 35.8243C17.0883 35.9368 17.2409 36 17.4 36C17.5592 36 17.7118 35.9368 17.8243 35.8243C17.9368 35.7117 18 35.5591 18 35.4V32.4338C18 31.788 18.4965 31.2338 19.1423 31.2015C19.3045 31.1937 19.4667 31.2189 19.6189 31.2756C19.7711 31.3323 19.9103 31.4193 20.0279 31.5314C20.1455 31.6434 20.2391 31.7782 20.3031 31.9275C20.367 32.0768 20.4 32.2376 20.4 32.4V35.4C20.4 35.5591 20.4633 35.7117 20.5758 35.8243C20.6883 35.9368 20.8409 36 21 36H21.816C22.3705 35.9988 22.9075 35.8061 23.3363 35.4547C23.7652 35.1032 24.0595 34.6144 24.1695 34.071L24.9195 30.3105C24.9586 30.1148 25.0459 29.9319 25.1734 29.7784C25.301 29.625 25.4648 29.5057 25.65 29.4315L27.4283 28.725C28.5446 28.2827 29.5016 27.5141 30.1744 26.5197C30.8473 25.5252 31.2047 24.351 31.2 23.1503V15.7253C31.2 11.5253 29.55 7.5645 26.55 4.5705ZM9.27454 23.991C8.42228 24.0468 7.57325 23.8415 6.84068 23.4024C6.10812 22.9633 5.52684 22.3112 5.17436 21.5333C4.82189 20.7553 4.71497 19.8884 4.86788 19.0481C5.02079 18.2078 5.42624 17.4341 6.03018 16.8301C6.63411 16.2262 7.40782 15.8207 8.24811 15.6678C9.08841 15.5149 9.95535 15.6218 10.7333 15.9743C11.5113 16.3268 12.1633 16.9081 12.6024 17.6406C13.0415 18.3732 13.2469 19.2222 13.191 20.0745C13.1244 21.0913 12.6904 22.0493 11.9699 22.7698C11.2493 23.4904 10.2914 23.9244 9.27454 23.991ZM17.475 28.5938C17.2687 28.7314 17.0255 28.8033 16.7775 28.8H14.4225C14.1751 28.803 13.9325 28.7311 13.7265 28.5938C13.5254 28.4574 13.3704 28.2633 13.282 28.0369C13.1936 27.8106 13.176 27.5628 13.2315 27.3263L14.4248 23.7563C14.625 23.25 14.9438 22.875 15.45 22.8098C16.0695 22.7348 16.5 23.025 16.7708 23.7263L17.9708 27.3263C18.0262 27.5629 18.0085 27.8107 17.92 28.0371C17.8315 28.2634 17.6763 28.4575 17.475 28.5938ZM22.476 23.991C21.6238 24.0468 20.7747 23.8415 20.0422 23.4024C19.3096 22.9633 18.7283 22.3112 18.3759 21.5333C18.0234 20.7553 17.9165 19.8884 18.0694 19.0481C18.2223 18.2078 18.6277 17.4341 19.2317 16.8301C19.8356 16.2262 20.6093 15.8207 21.4496 15.6678C22.2899 15.5149 23.1568 15.6218 23.9348 15.9743C24.7128 16.3268 25.3648 16.9081 25.8039 17.6406C26.243 18.3732 26.4484 19.2222 26.3925 20.0745C26.3259 21.0916 25.8917 22.0497 25.1708 22.7703C24.4499 23.4909 23.4916 23.9247 22.4745 23.991H22.476Z" fill="#FCFBFE"/>
</svg>
