<svg width="28" height="24" viewBox="0 0 28 24" fill="none" xmlns="http://www.w3.org/2000/svg">
<path d="M0.666748 2.66667C0.666748 1.2 1.86675 0 3.33341 0H24.6667C25.374 0 26.0523 0.280952 26.5524 0.781049C27.0525 1.28115 27.3334 1.95942 27.3334 2.66667V21.3333C27.3334 22.0406 27.0525 22.7189 26.5524 23.219C26.0523 23.719 25.374 24 24.6667 24H3.33341C2.62617 24 1.94789 23.719 1.4478 23.219C0.9477 22.7189 0.666748 22.0406 0.666748 21.3333V2.66667ZM3.33341 5.33333V21.3333H24.6667V5.33333H3.33341Z" fill="#CED0DA"/>
<rect width="6.66667" height="2" transform="translate(4.66675 10.6667)" fill="#CED0DA"/>
<rect width="6.66667" height="2" transform="translate(16.6667 10.6667)" fill="#CED0DA"/>
<rect width="6.66667" height="2" transform="translate(4.66675 14)" fill="#CED0DA"/>
<rect width="6.66667" height="2" transform="translate(16.6667 14)" fill="#CED0DA"/>
<rect width="6.66667" height="2" transform="translate(4.66675 17.3333)" fill="#CED0DA"/>
<rect width="6.66667" height="2" transform="translate(16.6667 17.3333)" fill="#CED0DA"/>
</svg>
