<svg width="32" height="36" viewBox="0 0 32 36" fill="none" xmlns="http://www.w3.org/2000/svg">
<path d="M4.2 36H1.8C1.32261 36 0.864773 35.8104 0.527208 35.4728C0.189642 35.1352 0 34.6774 0 34.2V23.4C0 22.9226 0.189642 22.4648 0.527208 22.1272C0.864773 21.7896 1.32261 21.6 1.8 21.6H4.2C4.67739 21.6 5.13523 21.7896 5.47279 22.1272C5.81036 22.4648 6 22.9226 6 23.4V34.2C6 34.6774 5.81036 35.1352 5.47279 35.4728C5.13523 35.8104 4.67739 36 4.2 36ZM21 36H18.6C18.1226 36 17.6648 35.8104 17.3272 35.4728C16.9896 35.1352 16.8 34.6774 16.8 34.2V16.2C16.8 15.7226 16.9896 15.2648 17.3272 14.9272C17.6648 14.5896 18.1226 14.4 18.6 14.4H21C21.4774 14.4 21.9352 14.5896 22.2728 14.9272C22.6104 15.2648 22.8 15.7226 22.8 16.2V34.2C22.8 34.6774 22.6104 35.1352 22.2728 35.4728C21.9352 35.8104 21.4774 36 21 36ZM29.4 36H27C26.5226 36 26.0648 35.8104 25.7272 35.4728C25.3896 35.1352 25.2 34.6774 25.2 34.2V7.8C25.2 7.32261 25.3896 6.86477 25.7272 6.52721C26.0648 6.18964 26.5226 6 27 6H29.4C29.8774 6 30.3352 6.18964 30.6728 6.52721C31.0104 6.86477 31.2 7.32261 31.2 7.8V34.2C31.2 34.6774 31.0104 35.1352 30.6728 35.4728C30.3352 35.8104 29.8774 36 29.4 36ZM12.6 36H10.2C9.72261 36 9.26477 35.8104 8.92721 35.4728C8.58964 35.1352 8.4 34.6774 8.4 34.2V1.8C8.4 1.32261 8.58964 0.864773 8.92721 0.527208C9.26477 0.189642 9.72261 0 10.2 0H12.6C13.0774 0 13.5352 0.189642 13.8728 0.527208C14.2104 0.864773 14.4 1.32261 14.4 1.8V34.2C14.4 34.6774 14.2104 35.1352 13.8728 35.4728C13.5352 35.8104 13.0774 36 12.6 36Z" fill="#FCFBFE"/>
</svg>
