<svg width="28" height="24" viewBox="0 0 28 24" fill="none" xmlns="http://www.w3.org/2000/svg">
<path d="M0.666626 2.66667C0.666626 1.2 1.86663 0 3.33329 0H24.6666C25.3739 0 26.0521 0.280952 26.5522 0.781049C27.0523 1.28115 27.3333 1.95942 27.3333 2.66667V21.3333C27.3333 22.0406 27.0523 22.7189 26.5522 23.219C26.0521 23.719 25.3739 24 24.6666 24H3.33329C2.62605 24 1.94777 23.719 1.44767 23.219C0.947578 22.7189 0.666626 22.0406 0.666626 21.3333V2.66667ZM3.33329 5.33333V21.3333H24.6666V5.33333H3.33329Z" fill="#FCFBFE"/>
<rect width="18.6667" height="2.66667" transform="translate(4.66663 17.3333)" fill="#FCFBFE"/>
</svg>
