<svg width="36" height="36" viewBox="0 0 36 36" fill="none" xmlns="http://www.w3.org/2000/svg">
<path d="M16.2 0V3.726C13.0322 4.12834 10.0879 5.57196 7.82993 7.82993C5.57196 10.0879 4.12834 13.0322 3.726 16.2H0V19.8H3.726C4.12834 22.9678 5.57196 25.9121 7.82993 28.1701C10.0879 30.428 13.0322 31.8717 16.2 32.274V36H19.8V32.274C22.9678 31.8717 25.9121 30.428 28.1701 28.1701C30.428 25.9121 31.8717 22.9678 32.274 19.8H36V16.2H32.274C31.8717 13.0322 30.428 10.0879 28.1701 7.82993C25.9121 5.57196 22.9678 4.12834 19.8 3.726V0M16.2 7.344V10.8H19.8V7.362C24.3 8.1 27.9 11.7 28.656 16.2H25.2V19.8H28.638C27.9 24.3 24.3 27.9 19.8 28.656V25.2H16.2V28.638C11.7 27.9 8.1 24.3 7.344 19.8H10.8V16.2H7.362C8.1 11.7 11.7 8.1 16.2 7.344ZM18 16.2C17.5226 16.2 17.0648 16.3896 16.7272 16.7272C16.3896 17.0648 16.2 17.5226 16.2 18C16.2 18.4774 16.3896 18.9352 16.7272 19.2728C17.0648 19.6104 17.5226 19.8 18 19.8C18.4774 19.8 18.9352 19.6104 19.2728 19.2728C19.6104 18.9352 19.8 18.4774 19.8 18C19.8 17.5226 19.6104 17.0648 19.2728 16.7272C18.9352 16.3896 18.4774 16.2 18 16.2Z" fill="#FCFBFE"/>
</svg>
