<svg width="34" height="36" viewBox="0 0 34 36" fill="none" xmlns="http://www.w3.org/2000/svg">
<path d="M11.1506 31.385H22.0726C21.8544 32.6755 21.1862 33.847 20.1865 34.6917C19.1869 35.5365 17.9204 36 16.6116 36C15.3028 36 14.0363 35.5365 13.0367 34.6917C12.037 33.847 11.3689 32.6755 11.1506 31.385ZM16.6116 0C20.2839 0 23.8057 1.4588 26.4024 4.05549C28.9991 6.65218 30.4579 10.174 30.4579 13.8463V21.231L33.0758 27.0649C33.1948 27.3318 33.2453 27.6241 33.2227 27.9154C33.2 28.2067 33.105 28.4877 32.9461 28.7329C32.7873 28.9781 32.5697 29.1798 32.3132 29.3195C32.0566 29.4593 31.7692 29.5328 31.477 29.5333H1.75358C1.46102 29.5332 1.17312 29.46 0.916097 29.3203C0.659071 29.1805 0.441087 28.9787 0.281993 28.7332C0.1229 28.4876 0.0277515 28.2062 0.00521282 27.9145C-0.0173259 27.6228 0.0334612 27.3301 0.152949 27.0631L2.76529 21.2292V13.8223L2.77452 13.3608C2.90081 9.77523 4.41392 6.37868 6.99506 3.88674C9.5762 1.39479 13.0238 0.000168463 16.6116 0Z" fill="#FCFBFE"/>
</svg>
