<svg width="43" height="38" viewBox="0 0 43 38" fill="none" xmlns="http://www.w3.org/2000/svg">
<path d="M1 10V5.5C1 4.30653 1.47411 3.16193 2.31802 2.31802C3.16193 1.47411 4.30653 1 5.5 1H37C38.1935 1 39.3381 1.47411 40.182 2.31802C41.0259 3.16193 41.5 4.30653 41.5 5.5V10M1 10V32.5C1 33.6935 1.47411 34.8381 2.31802 35.682C3.16193 36.5259 4.30653 37 5.5 37H37C38.1935 37 39.3381 36.5259 40.182 35.682C41.0259 34.8381 41.5 33.6935 41.5 32.5V10M1 10H41.5" stroke="#FCFBFE" stroke-width="2" stroke-linecap="round" stroke-linejoin="round"/>
<path d="M1 5.5C1 4.30653 1.47411 3.16193 2.31802 2.31802C3.16193 1.47411 4.30653 1 5.5 1H37C38.1935 1 39.3381 1.47411 40.182 2.31802C41.0259 3.16193 41.5 4.30653 41.5 5.5V10H1V5.5Z" fill="#FCFBFE"/>
</svg>
