<svg width="16" height="16" viewBox="0 0 16 16" fill="none" xmlns="http://www.w3.org/2000/svg">
<path d="M3.72005 4.6399C4.09008 4.6399 4.39005 4.36232 4.39005 4.0199C4.39005 3.67749 4.09008 3.3999 3.72005 3.3999C3.35002 3.3999 3.05005 3.67749 3.05005 4.0199C3.05005 4.36232 3.35002 4.6399 3.72005 4.6399Z" fill="black"/>
<path d="M6.29012 4.65006C6.38038 4.65843 6.4714 4.64782 6.55732 4.61893C6.64325 4.59003 6.72217 4.54348 6.78904 4.48226C6.8559 4.42105 6.90922 4.34653 6.94557 4.26348C6.98193 4.18044 7.0005 4.09071 7.00012 4.00006C7.00012 3.81706 6.92742 3.64156 6.79802 3.51216C6.66862 3.38275 6.49312 3.31006 6.31012 3.31006C6.12712 3.31006 5.95161 3.38275 5.82221 3.51216C5.69281 3.64156 5.62012 3.81706 5.62012 4.00006C5.62008 4.08713 5.63753 4.17332 5.67144 4.25351C5.70535 4.33371 5.75502 4.40627 5.81751 4.4669C5.88001 4.52752 5.95404 4.57498 6.03523 4.60644C6.11641 4.6379 6.20309 4.65274 6.29012 4.65006Z" fill="black"/>
<path d="M8.86995 4.64989C9.23998 4.64989 9.53995 4.36783 9.53995 4.01989C9.53995 3.67195 9.23998 3.38989 8.86995 3.38989C8.49992 3.38989 8.19995 3.67195 8.19995 4.01989C8.19995 4.36783 8.49992 4.64989 8.86995 4.64989Z" fill="black"/>
<path d="M14.25 1.5H1.75C1.41848 1.5 1.10054 1.6317 0.866117 1.86612C0.631696 2.10054 0.5 2.41848 0.5 2.75V13.25C0.5 13.5815 0.631696 13.8995 0.866117 14.1339C1.10054 14.3683 1.41848 14.5 1.75 14.5H14.25C14.5815 14.5 14.8995 14.3683 15.1339 14.1339C15.3683 13.8995 15.5 13.5815 15.5 13.25V2.75C15.5 2.41848 15.3683 2.10054 15.1339 1.86612C14.8995 1.6317 14.5815 1.5 14.25 1.5ZM1.75 2.75H14.25V5.25H1.75V2.75ZM1.75 13.25V6.5H14.25V13.25H1.75Z" fill="black"/>
</svg>
