<svg width="42" height="36" viewBox="0 0 42 36" fill="none" xmlns="http://www.w3.org/2000/svg">
<path d="M12 0.669003L0.705 7.728C0.489262 7.86284 0.311364 8.05033 0.188035 8.27285C0.0647061 8.49537 -6.00016e-07 8.74559 0 9V34.5C-6.31501e-07 34.7678 0.0716706 35.0306 0.207573 35.2613C0.343475 35.492 0.538654 35.6822 0.772846 35.812C1.00704 35.9418 1.27171 36.0065 1.53937 35.9995C1.80704 35.9925 2.06794 35.9139 2.295 35.772L12 29.706V0.666003V0.669003ZM15 29.427L27 35.427V6.573L15 0.573003V29.427ZM41.295 28.272L30 35.331V6.291L39.705 0.228003C39.932 0.0860917 40.193 0.00754495 40.4606 0.000516919C40.7283 -0.00651111 40.993 0.0582356 41.2271 0.188036C41.4613 0.317837 41.6565 0.507959 41.7924 0.738663C41.9283 0.969368 42 1.23225 42 1.5V27C42 27.2544 41.9353 27.5046 41.812 27.7272C41.6886 27.9497 41.5107 28.1372 41.295 28.272Z" fill="#FCFBFE"/>
</svg>
