<svg width="36" height="36" viewBox="0 0 36 36" fill="none" xmlns="http://www.w3.org/2000/svg">
<path d="M7.875 0C3.5325 0 0 3.5325 0 7.875C0 12.2175 3.5325 15.75 7.875 15.75C12.2175 15.75 15.75 12.2175 15.75 7.875C15.75 3.5325 12.2175 0 7.875 0ZM7.875 11.25C6.0075 11.25 4.5 9.7425 4.5 7.875C4.5 6.0075 6.0075 4.5 7.875 4.5C9.7425 4.5 11.25 6.0075 11.25 7.875C11.25 9.7425 9.7425 11.25 7.875 11.25ZM28.125 20.25C23.7825 20.25 20.25 23.7825 20.25 28.125C20.25 32.4675 23.7825 36 28.125 36C32.4675 36 36 32.4675 36 28.125C36 23.7825 32.4675 20.25 28.125 20.25ZM28.125 31.5C26.2575 31.5 24.75 29.9925 24.75 28.125C24.75 26.2575 26.2575 24.75 28.125 24.75C29.9925 24.75 31.5 26.2575 31.5 28.125C31.5 29.9925 29.9925 31.5 28.125 31.5ZM34.4025 1.5975C35.28 2.475 35.28 3.8925 34.4025 4.77L4.77 34.4025C4.56169 34.6108 4.31439 34.776 4.04222 34.8888C3.77005 35.0015 3.47834 35.0595 3.18375 35.0595C2.88916 35.0595 2.59745 35.0015 2.32528 34.8888C2.05311 34.776 1.80581 34.6108 1.5975 34.4025C1.38919 34.1942 1.22395 33.9469 1.11121 33.6747C0.998478 33.4026 0.940453 33.1108 0.940453 32.8162C0.940453 32.5217 0.998478 32.2299 1.11121 31.9578C1.22395 31.6856 1.38919 31.4383 1.5975 31.23L31.23 1.5975C31.4382 1.38892 31.6854 1.22344 31.9576 1.11053C32.2298 0.997618 32.5216 0.939501 32.8162 0.939501C33.1109 0.939501 33.4027 0.997618 33.6749 1.11053C33.9471 1.22344 34.1943 1.38892 34.4025 1.5975Z" fill="#FCFBFE"/>
</svg>
