<svg width="41" height="36" viewBox="0 0 41 36" fill="none" xmlns="http://www.w3.org/2000/svg">
<path d="M36 4.69565H30.5765L27.9098 0.696522C27.7669 0.482384 27.5734 0.306788 27.3465 0.185294C27.1195 0.0637986 26.8661 0.000154575 26.6087 0H14.087C13.8295 0.000154575 13.5761 0.0637986 13.3492 0.185294C13.1222 0.306788 12.9287 0.482384 12.7859 0.696522L10.1172 4.69565H4.69565C3.45029 4.69565 2.25593 5.19037 1.37532 6.07098C0.494719 6.95158 0 8.14594 0 9.3913V31.3043C0 32.5497 0.494719 33.7441 1.37532 34.6247C2.25593 35.5053 3.45029 36 4.69565 36H36C37.2454 36 38.4397 35.5053 39.3203 34.6247C40.2009 33.7441 40.6957 32.5497 40.6957 31.3043V9.3913C40.6957 8.14594 40.2009 6.95158 39.3203 6.07098C38.4397 5.19037 37.2454 4.69565 36 4.69565ZM27.3913 19.5652C27.3913 20.9583 26.9782 22.3201 26.2043 23.4784C25.4303 24.6367 24.3303 25.5394 23.0432 26.0725C21.7562 26.6056 20.34 26.7451 18.9737 26.4734C17.6074 26.2016 16.3524 25.5308 15.3673 24.5457C14.3823 23.5607 13.7115 22.3056 13.4397 20.9393C13.1679 19.573 13.3074 18.1568 13.8405 16.8698C14.3736 15.5828 15.2764 14.4827 16.4347 13.7088C17.593 12.9348 18.9548 12.5217 20.3478 12.5217C22.2159 12.5217 24.0074 13.2638 25.3283 14.5847C26.6492 15.9056 27.3913 17.6972 27.3913 19.5652Z" fill="#FCFBFE"/>
</svg>
