<svg width="36" height="36" viewBox="0 0 36 36" fill="none" xmlns="http://www.w3.org/2000/svg">
<path d="M30.6685 5.29479C28.783 3.39234 26.4943 1.93771 23.9714 1.03832C21.4484 0.138934 18.7556 -0.18224 16.0919 0.098518C7.83638 0.930821 1.043 7.63423 0.120715 15.8898C-1.11649 26.7997 7.31901 36 17.959 36C21.3559 36 24.6831 35.0362 27.5541 33.2204C30.425 31.4047 32.7218 28.8116 34.1776 25.7424C34.8975 24.2353 33.8177 22.5032 32.1531 22.5032C31.3208 22.5032 30.5335 22.9531 30.1736 23.6954C28.8676 26.5051 26.6337 28.7792 23.8479 30.1352C21.0621 31.4913 17.8942 31.8465 14.8772 31.1412C9.8834 30.0389 5.85685 25.9674 4.7996 20.9736C4.35518 18.9991 4.36033 16.95 4.81466 14.9778C5.269 13.0056 6.1609 11.1608 7.4244 9.57984C8.68789 7.99885 10.2907 6.72214 12.1141 5.84414C13.9376 4.96615 15.9351 4.50933 17.959 4.50747C21.6931 4.50747 25.0223 6.0596 27.4517 8.51152L24.055 11.9082C22.6379 13.3254 23.6276 15.7548 25.6297 15.7548H33.7052C34.9425 15.7548 35.9547 14.7425 35.9547 13.5053V5.42975C35.9547 3.42773 33.5253 2.41547 32.1081 3.83263L30.6685 5.29479Z" fill="#FCFBFE"/>
</svg>
