<svg width="31" height="36" viewBox="0 0 31 36" fill="none" xmlns="http://www.w3.org/2000/svg">
<path d="M12.0056 3.42857H18.8627C19.8056 3.42857 20.577 2.65714 20.577 1.71429C20.577 0.771429 19.8056 0 18.8627 0H12.0056C11.0627 0 10.2913 0.771429 10.2913 1.71429C10.2913 2.65714 11.0627 3.42857 12.0056 3.42857ZM27.4856 10.9543L28.7713 9.66857C29.0883 9.34964 29.2662 8.91824 29.2662 8.46857C29.2662 8.01891 29.0883 7.58751 28.7713 7.26857L28.7542 7.25143C28.4352 6.93444 28.0038 6.75653 27.5541 6.75653C27.1045 6.75653 26.6731 6.93444 26.3541 7.25143L25.0684 8.53714C22.3381 6.33999 18.9387 5.14233 15.4341 5.14286C7.20558 5.14286 0.211294 11.9314 0.00558021 20.16C-0.0498594 22.2206 0.308271 24.2714 1.05881 26.1912C1.80935 28.1111 2.93708 29.861 4.37536 31.3376C5.81364 32.8143 7.5333 33.9876 9.43272 34.7884C11.3322 35.5892 13.3728 36.0012 15.4341 36C18.3387 36.0016 21.1846 35.1827 23.6441 33.6376C26.1036 32.0926 28.0767 29.8843 29.336 27.267C30.5954 24.6497 31.0899 21.7299 30.7625 18.8439C30.4351 15.9578 29.2992 13.223 27.4856 10.9543ZM17.1484 20.5714C17.1484 21.5143 16.377 22.2857 15.4341 22.2857C14.4913 22.2857 13.7199 21.5143 13.7199 20.5714V13.7143C13.7199 12.7714 14.4913 12 15.4341 12C16.377 12 17.1484 12.7714 17.1484 13.7143V20.5714Z" fill="#FCFBFE"/>
</svg>
