<svg width="20" height="36" viewBox="0 0 20 36" fill="none" xmlns="http://www.w3.org/2000/svg">
<path d="M12.1346 10.5614H15.9378C16.4652 10.5618 16.9842 10.693 17.4484 10.9432C17.9126 11.1933 18.3075 11.5547 18.5978 11.995C18.888 12.4352 19.0646 12.9406 19.1116 13.4658C19.1587 13.9911 19.0747 14.5197 18.8673 15.0046L10.4488 34.6542C10.2455 35.1247 9.88646 35.5109 9.43193 35.7477C8.9774 35.9845 8.45517 36.0575 7.95312 35.9544C7.45107 35.8514 6.99983 35.5786 6.67535 35.1818C6.35086 34.7851 6.17292 34.2887 6.17148 33.7762V19.065L3.08255 18.9694C2.25537 18.9418 1.47133 18.5937 0.896102 17.9986C0.320877 17.4036 -0.000459428 16.6082 4.93024e-07 15.7805V3.18884C4.93024e-07 2.34311 0.335967 1.53201 0.933991 0.933991C1.53202 0.335966 2.34311 0 3.18884 0L8.94577 0C9.7915 0 10.6026 0.335966 11.2006 0.933991C11.7986 1.53201 12.1346 2.34311 12.1346 3.18884V10.5614Z" fill="#FCFBFE"/>
</svg>
